<?xml version="1.0" encoding="UTF-8"?>
<svg width="195px" height="88px" viewBox="0 0 195 88" version="1.1" xmlns="http://www.w3.org/2000/svg" xmlns:xlink="http://www.w3.org/1999/xlink">
    <!-- Generator: Sketch 43.2 (39069) - http://www.bohemiancoding.com/sketch -->
    <title>error-icon@1x</title>
    <desc>Created with Sketch.</desc>
    <defs>
        <polygon id="path-1" points="40.365046 0.265817052 40.365046 3.95090743 0.571521564 3.95090743 0.571521564 0.265817052 40.365046 0.265817052"></polygon>
        <polygon id="path-3" points="7.2720965e-16 3.69196496 7.2720965e-16 0.00734868782 30.4547149 0.00734868782 30.4547149 3.69196496 0 3.69196496"></polygon>
    </defs>
    <g id="Page-1" stroke="none" stroke-width="1" fill="none" fill-rule="evenodd">
        <g id="proxy-error" transform="translate(-31.000000, -65.000000)">
            <g id="error-icon" transform="translate(31.000000, 65.000000)">
                <path d="M103.232893,3.68485332 L76.0173542,3.68485332 C75.1269488,3.68485332 74.3980036,2.95709617 74.3980036,2.068142 L74.3980036,1.61694837 C74.3980036,0.727994203 75.1269488,0.000237054446 76.0173542,0.000237054446 L103.232893,0.000237054446 C104.12409,0.000237054446 104.853035,0.727994203 104.853035,1.61694837 L104.853035,2.068142 C104.853035,2.95709617 104.12409,3.68485332 103.232893,3.68485332" id="Fill-1" fill="#F9EC31"></path>
                <path d="M70.7825618,3.68485332 L65.7282248,3.68485332 C64.8378194,3.68485332 64.1088742,2.95709617 64.1088742,2.068142 L64.1088742,1.61694837 C64.1088742,0.727994203 64.8378194,0.000237054446 65.7282248,0.000237054446 L70.7825618,0.000237054446 C71.6737587,0.000237054446 72.4027039,0.727994203 72.4027039,1.61694837 L72.4027039,2.068142 C72.4027039,2.95709617 71.6737587,3.68485332 70.7825618,3.68485332" id="Fill-3" fill="#F9EC31"></path>
                <path d="M119.475867,11.0557452 L82.9201728,11.0557452 C82.0297674,11.0557452 81.3016136,10.3279881 81.3016136,9.43824374 L81.3016136,8.98705011 C81.3016136,8.09809594 82.0297674,7.37033879 82.9201728,7.37033879 L119.475867,7.37033879 C120.366272,7.37033879 121.095217,8.09809594 121.095217,8.98705011 L121.095217,9.43824374 C121.095217,10.3279881 120.366272,11.0557452 119.475867,11.0557452" id="Fill-5" fill="#F9EC31"></path>
                <path d="M98.3557664,5.52755655 C98.3557664,4.51454388 98.9952754,3.68485332 99.7772492,3.68485332 L86.7828703,3.68485332 C87.5648441,3.68485332 88.2043531,4.51454388 88.2043531,5.52755655 C88.2043531,6.54056921 87.5648441,7.37025977 86.7828703,7.37025977 L99.7772492,7.37025977 C98.9952754,7.37025977 98.3557664,6.54056921 98.3557664,5.52755655" id="Fill-7" fill="#F9EC31"></path>
                <path d="M176.839742,80.3324574 L149.624203,80.3324574 C148.733797,80.3324574 148.004852,79.6047003 148.004852,78.7157461 L148.004852,78.2645525 C148.004852,77.3755983 148.733797,76.6478412 149.624203,76.6478412 L176.839742,76.6478412 C177.730938,76.6478412 178.459884,77.3755983 178.459884,78.2645525 L178.459884,78.7157461 C178.459884,79.6047003 177.730938,80.3324574 176.839742,80.3324574" id="Fill-9" fill="#F9EC31"></path>
                <g id="Group-13" transform="translate(154.336941, 83.752126)">
                    <mask id="mask-2" fill="white">
                        <use xlink:href="#path-1"></use>
                    </mask>
                    <g id="Clip-12"></g>
                    <path d="M38.7457745,3.9512235 L2.19008076,3.9512235 C1.29967534,3.9512235 0.571521564,3.22346635 0.571521564,2.333722 L0.571521564,1.88252837 C0.571521564,0.9935742 1.29967534,0.265817052 2.19008076,0.265817052 L38.7457745,0.265817052 C39.6361799,0.265817052 40.3651252,0.9935742 40.3651252,1.88252837 L40.3651252,2.333722 C40.3651252,3.22346635 39.6361799,3.9512235 38.7457745,3.9512235" id="Fill-11" fill="#F9EC31" mask="url(#mask-2)"></path>
                </g>
                <path d="M171.962615,82.1751607 C171.962615,81.162148 172.602124,80.3324574 173.384098,80.3324574 L160.389719,80.3324574 C161.171693,80.3324574 161.811202,81.162148 161.811202,82.1751607 C161.811202,83.1881733 161.171693,84.0178639 160.389719,84.0178639 L173.384098,84.0178639 C172.602124,84.0178639 171.962615,83.1881733 171.962615,82.1751607" id="Fill-14" fill="#F9EC31"></path>
                <path d="M175.957093,78.253569 L115.699994,78.253569 C112.899767,78.253569 110.608457,75.9652034 110.608457,73.1695413 L110.608457,13.0114444 C110.608457,10.2157823 112.899767,7.92741674 115.699994,7.92741674 L175.957093,7.92741674 C178.757319,7.92741674 181.04942,10.2157823 181.04942,13.0114444 L181.04942,73.1695413 C181.04942,75.9652034 178.757319,78.253569 175.957093,78.253569" id="Fill-16" fill="#06708B"></path>
                <path d="M175.957093,75.092843 L115.699994,75.092843 C112.899767,75.092843 110.608457,72.8044775 110.608457,70.0088154 L110.608457,9.85071847 C110.608457,7.05505638 112.899767,4.7666908 115.699994,4.7666908 L175.957093,4.7666908 C178.757319,4.7666908 181.04942,7.05505638 181.04942,9.85071847 L181.04942,70.0088154 C181.04942,72.8044775 178.757319,75.092843 175.957093,75.092843" id="Fill-18" fill="#1497B6"></path>
                <path d="M169.948399,41.1351098 C169.948399,54.4346543 159.149562,65.2158905 145.828306,65.2158905 C132.507049,65.2158905 121.709003,54.4346543 121.709003,41.1351098 C121.709003,27.8355652 132.507049,17.054329 145.828306,17.054329 C159.149562,17.054329 169.948399,27.8355652 169.948399,41.1351098" id="Fill-20" fill="#025366"></path>
                <path d="M169.116721,39.4744643 C169.116721,52.3149135 158.689876,62.7247644 145.828464,62.7247644 C132.967052,62.7247644 122.540207,52.3149135 122.540207,39.4744643 C122.540207,26.6340152 132.967052,16.2241643 145.828464,16.2241643 C158.689876,16.2241643 169.116721,26.6340152 169.116721,39.4744643" id="Fill-22" fill="#06708B"></path>
                <path d="M166.011145,39.9297669 C166.011145,51.0578928 156.974915,60.0793948 145.828622,60.0793948 C134.682329,60.0793948 125.646099,51.0578928 125.646099,39.9297669 C125.646099,28.801641 134.682329,19.780139 145.828622,19.780139 C156.974915,19.780139 166.011145,28.801641 166.011145,39.9297669" id="Fill-24" fill="#D8EDEF"></path>
                <path d="M145.828622,26.8917724 C155.759215,26.8917724 164.008722,34.0539774 165.691391,43.4855836 C165.897173,42.3303383 166.011145,41.1434857 166.011145,39.9297669 C166.011145,28.801641 156.974915,19.780139 145.828622,19.780139 C134.682329,19.780139 125.646099,28.801641 125.646099,39.9297669 C125.646099,41.1434857 125.760071,42.3303383 125.965854,43.4855836 C127.648522,34.0539774 135.898029,26.8917724 145.828622,26.8917724" id="Fill-26" fill="#B4D6D4"></path>
                <path d="M140.090454,39.9297669 C140.090454,41.6752778 138.672928,43.0904929 136.924568,43.0904929 C135.176207,43.0904929 133.758682,41.6752778 133.758682,39.9297669 C133.758682,38.184256 135.176207,36.769041 136.924568,36.769041 C138.672928,36.769041 140.090454,38.184256 140.090454,39.9297669" id="Fill-28" fill="#06708B"></path>
                <path d="M157.502827,39.9297669 C157.502827,41.6752778 156.085301,43.0904929 154.336941,43.0904929 C152.58858,43.0904929 151.171055,41.6752778 151.171055,39.9297669 C151.171055,38.184256 152.58858,36.769041 154.336941,36.769041 C156.085301,36.769041 157.502827,38.184256 157.502827,39.9297669" id="Fill-30" fill="#06708B"></path>
                <path d="M146.180273,22.5457742 L145.278787,22.5457742 C144.711302,22.5457742 144.245917,22.0811475 144.245917,21.5137972 L144.245917,19.6268438 C144.245917,19.0594935 144.711302,18.5948668 145.278787,18.5948668 L146.180273,18.5948668 C146.74855,18.5948668 147.213935,19.0594935 147.213935,19.6268438 L147.213935,21.5137972 C147.213935,22.0811475 146.74855,22.5457742 146.180273,22.5457742" id="Fill-32" fill="#06708B"></path>
                <path d="M146.180273,61.264667 L145.278787,61.264667 C144.711302,61.264667 144.245917,60.8000403 144.245917,60.23269 L144.245917,58.3457366 C144.245917,57.7783863 144.711302,57.3137596 145.278787,57.3137596 L146.180273,57.3137596 C146.74855,57.3137596 147.213935,57.7783863 147.213935,58.3457366 L147.213935,60.23269 C147.213935,60.8000403 146.74855,61.264667 146.180273,61.264667" id="Fill-34" fill="#06708B"></path>
                <path d="M151.961735,52.4407104 C151.714004,52.4407104 151.463899,52.3632726 151.250202,52.2036559 C145.73048,48.0702166 140.238459,52.0337669 140.008141,52.2060265 C139.482604,52.5940056 138.740204,52.4865409 138.348425,51.9634408 C137.957438,51.4387603 138.062704,50.6991504 138.586658,50.3072204 C138.657099,50.2542782 145.712276,45.0936029 152.674851,50.3072204 C153.198805,50.6999406 153.305653,51.4427112 152.912292,51.9666015 C152.678808,52.2771428 152.322646,52.4407104 151.961735,52.4407104" id="Fill-36" fill="#06708B"></path>
                <g id="Group-40" transform="translate(0.000000, 23.698333)">
                    <mask id="mask-4" fill="white">
                        <use xlink:href="#path-3"></use>
                    </mask>
                    <g id="Clip-39"></g>
                    <path d="M28.8345728,3.69196496 L1.61903408,3.69196496 C0.728628654,3.69196496 -0.000316588596,2.96420781 -0.000316588596,2.07525364 L-0.000316588596,1.62406001 C-0.000316588596,0.735105836 0.728628654,0.00734868782 1.61903408,0.00734868782 L28.8345728,0.00734868782 C29.7257697,0.00734868782 30.4547149,0.735105836 30.4547149,1.62406001 L30.4547149,2.07525364 C30.4547149,2.96420781 29.7257697,3.69196496 28.8345728,3.69196496" id="Fill-38" fill="#F9EC31" mask="url(#mask-4)"></path>
                </g>
                <path d="M45.0775464,34.7611898 L8.52185269,34.7611898 C7.63144726,34.7611898 6.90329349,34.0334327 6.90329349,33.1436883 L6.90329349,32.6924947 C6.90329349,31.8035405 7.63144726,31.0757834 8.52185269,31.0757834 L45.0775464,31.0757834 C45.9679519,31.0757834 46.6968971,31.8035405 46.6968971,32.6924947 L46.6968971,33.1436883 C46.6968971,34.0334327 45.9679519,34.7611898 45.0775464,34.7611898" id="Fill-41" fill="#F9EC31"></path>
                <path d="M23.9574463,29.2330011 C23.9574463,28.2199885 24.5969553,27.3902979 25.3789291,27.3902979 L12.3845502,27.3902979 C13.166524,27.3902979 13.806033,28.2199885 13.806033,29.2330011 C13.806033,30.2460138 13.166524,31.0757043 12.3845502,31.0757043 L25.3789291,31.0757043 C24.5969553,31.0757043 23.9574463,30.2460138 23.9574463,29.2330011" id="Fill-43" fill="#F9EC31"></path>
                <path d="M117.712072,65.1947137 C119.12564,65.1947137 120.271691,66.3388965 120.271691,67.7501606 C120.271691,69.1622149 119.12564,70.3063977 117.712072,70.3063977 L104.91477,70.3063977 L104.91477,65.1947137 L117.712072,65.1947137 Z" id="Fill-45" fill="#3E474D"></path>
                <path d="M117.712072,49.8633754 C119.12564,49.8633754 120.271691,51.0075582 120.271691,52.4188224 C120.271691,53.8308767 119.12564,54.9750595 117.712864,54.9734791 L104.91477,54.9726889 L104.91477,49.8633754 L117.712072,49.8633754 Z" id="Fill-47" fill="#3E474D"></path>
                <polygon id="Fill-49" fill="#78A532" points="78.0387724 52.4183482 78.0395639 67.7494494 67.8002972 66.4725162 67.8002972 53.6952815"></polygon>
                <path d="M99.7949782,46.0305211 C99.7949782,44.619257 100.941029,43.4750742 102.354597,43.4750742 C103.768957,43.4750742 104.915007,44.6184668 104.915007,46.0305211 L104.915007,74.1388569 C104.915007,75.5501211 103.768957,76.695094 102.354597,76.695094 C100.941029,76.695094 99.7949782,75.5501211 99.7949782,74.1388569 L99.7949782,46.0305211" id="Fill-51" fill="#61871E"></path>
                <path d="M78.0395639,53.3312449 C78.0387724,50.6549002 80.1053045,48.4321197 82.7796866,48.2353645 L99.7939493,46.0307582 L99.7939493,74.139094 L82.7804781,71.9344876 C80.1068874,71.7369423 78.0395639,69.5133716 78.0387724,66.8386072 L78.0395639,53.3312449" id="Fill-53" fill="#8BC53F"></path>
                <path d="M86.9976757,58.4758795 C86.9976757,55.1310413 89.7140058,52.4183482 93.0658876,52.4175581 L99.7941867,52.4183482 L99.7957697,67.7502396 L93.0658876,67.7494494 C89.7140058,67.7502396 86.9968842,65.0383368 86.9976757,61.691128 L86.9976757,58.4758795" id="Fill-55" fill="#8BC53F"></path>
                <path d="M73.8689049,61.6929454 C74.1118866,61.9355311 74.2614747,62.2705681 74.2614747,62.6395828 L74.2614747,66.898661 C74.2622662,67.6390611 73.6623308,68.2380186 72.920722,68.2380186 C72.1783218,68.2380186 71.5783864,67.6390611 71.5783864,66.898661 L71.5783864,62.6395828 C71.5783864,61.8991828 72.1783218,61.3010154 72.920722,61.3010154 C73.2903392,61.3010154 73.6259231,61.4503597 73.8689049,61.6929454" id="Fill-57" fill="#8CC63F"></path>
                <path d="M73.8689049,52.3234474 C74.1118866,52.5660332 74.2614747,52.9010701 74.2614747,53.2700849 L74.2614747,57.5291631 C74.2614747,58.2695631 73.6615393,58.8685207 72.9199305,58.8685207 C72.1775303,58.8685207 71.5783864,58.2695631 71.5783864,57.5291631 L71.5783864,53.2700849 C71.5775949,52.530475 72.1775303,51.9315174 72.9199305,51.9315174 C73.2903392,51.9315174 73.6251316,52.0808617 73.8689049,52.3234474" id="Fill-59" fill="#8CC63F"></path>
                <path d="M61.4765983,20.9500027 C61.0120045,20.9500027 60.6700888,20.9626456 60.485676,20.9713376 L10.2889711,20.9713376 L10.2889711,25.7124265 L60.678795,25.7084756 C62.6329381,25.6073324 68.2919593,25.8925879 70.9473461,28.4077356 C71.9382685,29.3472614 72.4194831,30.5333238 72.4194831,32.0338784 C72.4194831,34.2922171 71.7546471,36.0369378 70.3885673,37.3691838 C67.2416766,40.435088 61.4671006,40.3339447 61.4022,40.3315742 L50.3611727,40.330784 C49.1130221,40.2296408 42.0879212,39.8408715 37.9778097,43.5808005 C36.1131029,45.2757398 35.1277209,47.6004537 35.1277209,50.301294 C35.1277209,53.6010919 36.2310321,56.2940304 38.4067873,58.3018816 C42.6015862,62.1729807 49.3734162,61.9066895 50.3374285,61.8513768 L67.8004555,61.8513768 L67.8004555,57.1102879 L50.073077,57.1173995 C48.5376224,57.2335562 44.0175287,57.0352206 41.6201615,54.8108597 C40.4472008,53.7227798 39.8765498,52.2467208 39.8765498,50.301294 C39.8765498,48.9129451 40.2889065,47.8912405 41.176146,47.0844652 C43.4919916,44.9770512 48.4758876,44.9169974 50.0382523,45.0623908 L50.2582814,45.0718729 L61.3388822,45.0718729 C61.5874043,45.0821453 69.0778905,45.2480834 73.6834631,40.783558 C75.9961428,38.5418131 77.1683121,35.5975969 77.1683121,32.0338784 C77.1683121,29.2358458 76.1433565,26.7894439 74.2042513,24.9578032 C70.3782781,21.3443033 64.052838,20.9500027 61.4765983,20.9500027" id="Fill-61" fill="#3E474D"></path>
            </g>
        </g>
    </g>
</svg>