<svg id="Layer_1" xmlns="http://www.w3.org/2000/svg" xmlns:xlink="http://www.w3.org/1999/xlink" viewBox="0 0 302.4 101.6" enable-background="new 0 0 302.4 101.6">
	<path fill="#0ACCF9" d="M14.4 16.9h-.6c-.2.2-.2.5 0 .6h.6c.2-.1.2-.4 0-.6zm-.9.9c-.3-.3-.3-.8 0-1.1.3-.3.8-.3 1.1 0 .3.3.3.8 0 1.1-.3.3-.8.3-1.1 0zm-8.9 3.8L4.2 19l.6-.1.3 2.6-.5.1zm40.9 61.9c.4-.3.4-.9 0-1.3-.4-.3-.9-.3-1.3 0-.4.4-.4.9 0 1.3.4.3.9.3 1.3 0zm-1.8.5c-.6-.6-.6-1.7 0-2.3.6-.6 1.7-.6 2.3 0 .6.6.6 1.7 0 2.3-.6.6-1.7.6-2.3 0zm20.2 12.5L46.4 77.9l-1.9.9-.4-.9 1.6-.8L4.9 33.6C0 28.4 1.7 22.9 8.6 21.3l84-19.7c6.9-1.6 10.8 2.6 8.8 9.3l-25 82.6c-2 6.8-7.6 8.1-12.5 3z"/>
	<mask maskUnits="userSpaceOnUse" x="0" y="0" width="103.4" height="101.6" id="ID_1">
	</mask>
	<g mask="url(#ID_1)" enable-background="new">
		<defs>
			<path id="ID_8" d="M0 0h103.4v101.6H0z"/>
		</defs>
		<clipPath id="ID_9">
			<use xlink:href="#ID_8" overflow="visible"/>
		</clipPath>
		<path clip-path="url(#ID_9)" fill="#B0EEFC" d="M14.4 16.9h-.6c-.2.2-.2.5 0 .6h.6c.2-.1.2-.4 0-.6zm-.9.9c-.3-.3-.3-.8 0-1.1.3-.3.8-.3 1.1 0 .3.3.3.8 0 1.1-.3.3-.8.3-1.1 0zm-8.9 3.8L4.2 19l.6-.1.3 2.6-.5.1zm40.9 61.9c.4-.3.4-.9 0-1.3-.4-.3-.9-.3-1.3 0-.4.4-.4.9 0 1.3.4.3.9.3 1.3 0zm-1.8.5c-.6-.6-.6-1.7 0-2.3.6-.6 1.7-.6 2.3 0 .6.6.6 1.7 0 2.3-.6.6-1.7.6-2.3 0zm20.2 12.5L46.4 77.9l-1.9.9-.4-.9 1.6-.8L4.9 33.6C0 28.4 1.7 22.9 8.6 21.3l84-19.7c6.9-1.6 10.8 2.6 8.8 9.3l-25 82.6c-2 6.8-7.6 8.1-12.5 3z"/>
	</g>
	<path fill="#024654" d="M67.1 14.1c-.3-.3-.3-.8 0-1.1.3-.3.8-.3 1.1 0 .3.3.3.8 0 1.1-.3.3-.8.3-1.1 0zm1.5.4c.5-.5.5-1.4 0-1.9s-1.4-.5-1.9 0-.5 1.4 0 1.9 1.4.5 1.9 0zm-4-2.2c-.4 0-.8.1-1.1.4-.6.6-.6 1.6 0 2.2l.2.2c-.1-.9 0-1.9.9-2.8zm-12.5 3.4L52 15l3.2-.7.2.7-3.3.7zm12.5 1.9c-.1-.3-.2-.5-.3-.8 0-.1.1-.3.2-.4.3-.3.8-.3 1.1 0 .3.3.3.8 0 1.1-.4.2-.7.2-1 .1zm3.6.9c-.2-.2-.2-.4 0-.6.1-.2.4-.2.6 0 .2.2.2.4 0 .6-.2.1-.5.1-.6 0zm-35.7.2l-.2-.3 1.1-1 .2.3-1.1 1zm36.4 0c.3-.3.3-.7 0-1-.3-.3-.7-.3-1 0-.3.3-.3.7 0 1 .3.3.8.3 1 0zm-7.6 1.7c.5-.5.5-1.2 0-1.7s-1.3-.5-1.7 0c-.5.5-.5 1.2 0 1.7s1.3.5 1.7 0zm-2.4.7c-.9-.9-.9-2.3 0-3.1.9-.9 2.3-.9 3.2 0 .9.9.9 2.3 0 3.1-.9.9-2.3.9-3.2 0zm-11.1 3.4c.3-.3.3-.8 0-1.1-.3-.3-.8-.3-1.1 0-.3.3-.3.8 0 1.1.3.3.8.3 1.1 0zm-1.6.5c-.6-.6-.6-1.5 0-2.1.6-.6 1.5-.6 2.1 0 .6.6.6 1.5 0 2.1-.6.5-1.6.5-2.1 0zm21.5.5l.2-.9-3.4-.6c.1-.1.1-.3.2-.4-.3 0-.7.1-.9.3-.4.4-.5 1.1-.1 1.5.1-.2.3-.4.4-.6l3.6.7zm-40.6.3c.5-.5.5-1.3 0-1.7-.5-.5-1.2-.5-1.7 0-.1.1-.2.2-.2.3h.7v.9h-.8c.1.2.2.4.3.5.5.5 1.2.5 1.7 0zm-2.4.7c-.4-.4-.6-.8-.6-1.2l-2.3-.1v-.9l2.4.1c.1-.4.3-.7.6-1 .9-.9 2.3-.9 3.1 0 .9.9.9 2.3 0 3.1-.9.9-2.4.9-3.2 0zm38 .9c-.1-.1-.1-.2-.1-.3.1-.2.2-.4.3-.5.2-.1.4 0 .5.1.2.2.2.4 0 .6-.3.2-.6.2-.7.1zm-26.6.9v-2.1h.5v2.1h-.5zm17.2.8l-.2-.8 3.6-1 .2.8-3.6 1zm-38.5.6c.1 0 .1 0 0 0l-.4-.1.1-.5h.3c-.2-.2-.5-.2-.6 0-.2.2-.2.5 0 .6.2.2.5.2.6 0zm-.9.3c-.3-.3-.3-.8 0-1.1.3-.3.8-.3 1.1 0 .1.1.2.2.2.4l1.4.2-.1.5-1.4-.2c0 .1-.1.2-.2.3-.1.2-.6.2-1-.1zm47.9.5c-.1 0-.1-.1-.1-.2v-.8l.1-.1c.3-.3.8-.3 1 0 .3.3.3.8 0 1-.2.4-.7.4-1 .1zm3.5.4c-.4-.4-.4-1.1 0-1.5.4-.4 1.1-.4 1.5 0 .4.4.4 1 0 1.5-.5.4-1.1.4-1.5 0zm2 .6c.7-.7.7-1.9 0-2.6-.7-.7-1.9-.7-2.7 0-.7.7-.7 1.9 0 2.6.8.8 2 .8 2.7 0zm-5.6.1c-.2 0-.4.2-.6.3-.5.5-.5 1.3 0 1.7.2.2.4.3.6.3.1-.6.1-1.4 0-2.3zm-8.4 2.6c.3-.3.3-.7 0-1-.3-.3-.8-.3-1 0-.3.3-.3.8 0 1 .3.3.7.3 1 0zm-1.4.5c-.5-.5-.5-1.4 0-1.9s1.4-.5 1.9 0 .5 1.4 0 1.9c-.6.5-1.4.5-1.9 0zm15.2.9l.5-.1-.6-2-.5.1.6 2zm-37.9 2l-3-2.5.6-.7 3 2.5-.6.7zm30.4 0c.8-.8.8-2 0-2.8-.8-.8-2-.8-2.8 0-.8.8-.8 2 0 2.8.8.8 2 .8 2.8 0zm3.7 1.6c-.3-.3-.3-.9 0-1.2.3-.3.9-.3 1.2 0 .3.3.3.9 0 1.2-.3.4-.8.4-1.2 0zm1.7.5c.6-.6.6-1.6 0-2.2-.6-.6-1.6-.6-2.2 0-.6.6-.6 1.6 0 2.2.6.6 1.6.6 2.2 0zM45.6 41c.5-.5.5-1.3 0-1.7-.5-.5-1.3-.5-1.7 0-.5.5-.5 1.3 0 1.7.5.5 1.3.5 1.7 0zm14.3.3c-.3-.3-.3-.8 0-1.1.3-.3.8-.3 1 0 .3.3.3.8 0 1.1-.2.3-.7.3-1 0zm1.5.5c.5-.5.5-1.4 0-1.9-.3-.3-.6-.4-1.6-.1v-.1c-.2 0-.3.1-.5.3-.2.2-.3.6-.2.9 0 .4.1.7.4 1 .5.4 1.4.4 1.9-.1zm-18.2-.1c-.9-.9-.9-2.3 0-3.2.9-.9 2.3-.9 3.2 0 .9.9.9 2.3 0 3.2-.9.9-2.3.9-3.2 0zM67.1 44l.4-.7-3-1.7c-.1-.5-.2-.9-.4-1.5-.3 1.1-.4 2.3-.6 3.5.1-.2.2-.3.4-.5s.5-.4.8-.5l2.4 1.4zm-2.6 0c-.3.2-.4.6-.3 1 .1-.3.3-.7.3-1zm1.8 2.5c-.2-.2-.2-.5 0-.6.2-.2.5-.2.6 0 .2.2.2.4 0 .6-.1.2-.4.2-.6 0zm-36.8.2c.2-.2.2-.5 0-.6-.2-.2-.4-.2-.6 0-.2.2-.2.4 0 .6.2.2.4.2.6 0zm37.7.1c.3-.3.3-.8 0-1.2-.3-.3-.8-.3-1.1 0-.3.3-.3.8 0 1.2.3.3.8.3 1.1 0zm-38.6.2c-.3-.3-.3-.8 0-1.1.3-.3.8-.3 1.1 0 .3.3.3.8 0 1.1-.3.3-.8.3-1.1 0zm20.4.4v-.6l2.6-.2v.6l-2.6.2zm29.1-.3c0-.1.1-.2.2-.3.3-.3.9-.3 1.2 0 .3.3.3.8.1 1.1-.5-.3-1-.5-1.5-.8zm-38.8 2.2l-2.2-1.4.3-.5 2.2 1.4-.3.5zm23.6-1.2c.1.1.3.2.4.3.5.5.5 1.3 0 1.7-.2.2-.5.3-.8.4-.1-.9.1-1.6.4-2.4zm-7 2.4c.5-.5.5-1.3 0-1.7-.5-.5-1.3-.5-1.7 0-.5.5-.5 1.2 0 1.7.4.5 1.2.5 1.7 0zm-2.5.8c-.9-.9-.9-2.3 0-3.1.9-.9 2.3-.9 3.1 0 .9.9.9 2.3 0 3.1-.8.8-2.2.8-3.1 0zm4.2.9c-.1-.1-.1-.1-.1-.2l.4-.2c.2-.3.5-.5.7-.8 0 0 .1 0 .1.1.3.3.3.8 0 1-.4.4-.8.4-1.1.1zm7.3 1.8c-.2-.2-.2-.7 0-.9.3-.2.6-.2.9 0 .2.2.2.7 0 .9-.3.2-.7.2-.9 0zm1.2.3c.4-.5.4-1.2 0-1.6-.4-.5-1.2-.5-1.6 0-.4.4-.4 1.2 0 1.6.4.5 1.2.5 1.6 0zm-3.4-.8c-.3-.1-.6 0-.8.3-.4.4-.4 1 0 1.3.1.1.2.2.4.2.1-.6.3-1.2.4-1.8zm-5.9 2.7c-.2-.1-.3-.3-.4-.4.3 0 .6.1.8.4.2.2.3.3.3.6-.2-.3-.5-.4-.7-.6zm6.2 1.7c-.2-.2-.2-.4 0-.6.2-.2.5-.2.6 0 .2.2.2.5 0 .6-.2.2-.4.2-.6 0zm.9.3c.3-.3.3-.8 0-1.1-.3-.3-.8-.3-1.1 0-.3.3-.3.8 0 1.1.3.3.8.3 1.1 0zm-11.1 3.6c.4-.4.4-1.1 0-1.6-.4-.4-1.1-.4-1.6 0-.4.4-.4 1.1 0 1.6.5.5 1.2.5 1.6 0zm-2.2.7c-.8-.8-.8-2.1 0-2.8.8-.8 2.1-.8 2.8 0 .8.8.8 2.1 0 2.8-.7.7-2 .7-2.8 0zm13.5.6l1.1-1.8-.4-.3-1.1 1.8.4.3zm-18.1.2l-2.2-3.8.9-.5 2.2 3.7-.9.6zm25.6 2.1c.2-.2.2-.6 0-.9-.2-.2-.6-.2-.9 0-.3.3-.3.6 0 .9.2.2.6.2.9 0zm-1.3.4c-.4-.4-.4-1.2 0-1.6 1-.3 1.3-.2 1.5.1.2.2.4.5.1 1.5-.4.4-1.1.4-1.6 0zm-10 .1c-.1-.1-.1-.2-.2-.3.3-.2.4-.3.5-.4 0-.1.1-.1.2-.2.1 0 .2.1.3.2.2.2.2.6 0 .8-.2.2-.6.2-.8-.1zm1.2.4c.4-.4.4-1.1 0-1.5-.1-.1-.2-.2-.3-.2v-.1c-.1-.2-.2-.3-.3-.5-.5-.5-1.3-.5-1.7 0-.5.5-.5 1.3 0 1.7.1.1.2.2.4.3.1 0 .1-.1.2-.1.1.1.1.3.2.4.4.4 1 .4 1.5 0zm-18 2.4c.6-.6.6-1.6 0-2.2-.6-.6-1.6-.6-2.2 0-.6.6-.6 1.6 0 2.2.5.6 1.5.6 2.2 0zm27.8 1.1l-2.8-.8.2-.7 2.9.7-.3.8zm-11.8.1l.4-.4-1.6-1.7-.4.4 1.6 1.7zm12.6 0l-.1-.2.2-.1-.1.3zm-31.8-.3c-1.1-1.1-1.1-2.9 0-4s2.9-1.1 4 0 1.1 2.9 0 4-2.9 1.1-4 0zm34.5 1.9c-.3-.4-.1-.9.3-1.2.4-.3.9-.1 1.2.3.2.4.1.9-.3 1.1-.5.4-1 .2-1.2-.2zm1.5.9c.7-.4.9-1.4.5-2.1-.4-.7-1.4-.9-2.1-.5-.7.4-.9 1.4-.5 2.1.4.7 1.4.9 2.1.5zm-21.2.4l-.1-.1c.1-.3.2-.6.4-.8.2-.1.4 0 .6.1.2.2.2.6 0 .8-.3.2-.7.2-.9 0zm21.8 2.5l1.1-1.8-.4-.3-1.1 1.8.4.3zm-2.6-.2c-.2-.4-.3-.8-.4-1.3-.2 0-.5 0-.6.2-.3.3-.3.8 0 1.1.3.3.7.3 1 0zM53.6 77c-.2-.2-.3-.4-.2-.5l.4-1c.7-.2 1-.1 1.1.1.4.4.4 1 0 1.4-.3.3-.9.3-1.3 0zm-1.3 1.4c.2-.3.4-.7.6-1-.5-.2-1-.2-1.4.2-.4.4-.5 1-.2 1.5.5-.2.8-.4 1-.7zm-2.9 2c-.1-.1-.1-.2-.1-.3.2-.1.4-.3.7-.4 0 0 .1 0 .1.1.2.2.2.5 0 .6-.2.2-.5.2-.7 0zm28.6 2c-.1-.2-.2-.5-.3-.7-.1.1-.2.1-.3.2-.5.5-.5 1.2 0 1.7.2.2.5.4.9.4-.1-.6-.1-1.1-.3-1.6zm-26 1.7c-.5-.5-.5-1.3 0-1.7.2-.2.4-.3.6-.3-.1.6.1 1.5.5 2.4-.3 0-.8-.1-1.1-.4zm21.6.7L71 83.5l.3-.6 2.6 1.3-.3.6zm-21.8 2.9c.1-.1.1-.1 0 0 .3-.4.7-.4 1-.1.3.2.3.6 0 .9 0 0-.1 0-.1.1-.2-.3-.5-.6-.9-.9zm27 1c-.3-.4-.5-1-.5-1.7l1 .5.5-.9-1.5-.7v-.8c-.6 0-1.1-.2-1.6-.7-.9-.9-.9-2.3 0-3.1.2-.2.4-.3.6-.4-.3-.6-.6-1.1-.9-1.6l.7.6.6-.8L75 77c-.2-.4-.4-.8-.5-1.2-.5.3-1.2.3-1.7-.2s-.5-1.4 0-1.9c.2-.3.6-.4.9-.4 0-.3-.1-.6-.1-.8-.1-.6 0-1.3 0-2l-1.3.4-.2-.6.7.4.8-1.5h.1v-.1l1.3-2.2-.9-.5-.5.9c-.1-.3-.4-.7-.7-1.1.4-.8.2-1.8-.4-2.5-.5-.5-1.3-.7-1.9-.6-.2-.2-.3-.5-.5-.7h.3v-4.5h-1v1.6c-.1-.4-.2-.8-.4-1.1-.9.9-.5 4.6-3.1 6.8-.6.5-.6 2.3-.9 3-.3.7-2.4 2.4-3 3.4-.8 1.4-2 3.4-3.6 4.5-1.4 1-3.3 3.6-5 5.1-.7-.2-1.5 0-2.1.6-.9.9-.9 2.3 0 3.1.6.6 1.5.8 2.3.5.6 1.2 1.3 2.3 1.6 2.7 0 .1 1.5.2 1.8.3v.7c-1.1.1-2.7.6-3.7-.1 0 0-.1-.1-.2-.1.5-.4.5-1.2 0-1.6-.5-.5-1.2-.5-1.6 0l-.1.1c-.7-.8-1.5-1.8-2.1-2.7l-.1.1-.9-1.4 1.9-.9-.3-.7-2 .9-1.5-2.7 1.1-.7 1.1 1.7c0-.2.1-.3.2-.5.1-.1.1-.2.2-.3 0 .1.1.2.2.3.3.3.8.3 1.1 0 .3-.3.3-.8 0-1.1h.1c-.4-.8-.3-1.9.4-2.6.5-.5 1.1-.7 1.7-.6 0 .5.2.9.5 1.3.7.7 1.8.7 2.5 0s.7-1.8 0-2.5c-.3-.3-.8-.5-1.3-.5l.1-.2-2.6-1.7.6-.9 2.4 1.6s0-.1.1-.2c.4.4 1.1.4 1.5 0 .4-.4.4-1.1 0-1.5-.2-.2-.4-.3-.7-.3l.6-1.2-1.2.8-.7-1.1 3.6-2.3c.1-.2.3-.4.4-.6.1-.1.2-.2.4-.3l-.1-.1c-.9-.9-.9-2.3 0-3.2.7-.7 1.9-.8 2.7-.3 0-.2 0-.5-.1-.7l.4.9.7-.3-1.5-3.1h-.1l-1.1-2.1.9-.5.8 1.5c.2-.8.5-1.7.7-2.5-.3-.1-.5-.2-.7-.4-.7-.7-.7-1.7 0-2.4.4-.4 1-.6 1.5-.5 0-.2.1-.5.1-.7l-.3-.6c.5 0 .9-.3 1.3-.6.9-.9.9-2.3 0-3.2-.2-.2-.4-.4-.7-.5.1-.3.3-.6.4-1-.3-.4-.5-.8-.6-1.2 0 .1-.1.3-.1.4-.2.6-.5 1.1-.9 1.6-.5 0-1 .3-1.3.6-.6.7-.8 1.6-.5 2.4-.1.3-.2.6-.2.9-.2 1.6.2 6-1.7 6 0-.6-.2-1.1-.7-1.6-.5-.5-1.1-.7-1.8-.6.1-.4.2-.8.5-1.3l-1.1.5-.4-.9 2-.8c.1.1.2.3.3.4.5.5 1.4.5 1.9 0s.5-1.4 0-1.9l-.1-.1c.1-.1.1-.2.2-.3 0-.1-.3-1.7-.2-2.2.1-.6.1-1.2.2-1.8l-.9 1.7-.9-.5 1.2-2.3 2.5.4.1-.7-2.3-.4.5-1h.1c.1-.5.1-.9.1-1.3-.2-.1-.5-.2-.7-.4-.5-.5-.6-1.3-.3-1.9-1 .1-2.1-.3-2.9-1-1.4-1.4-1.4-3.7 0-5.1 1.1-1.1 2.8-1.4 4.2-.7 0-.6.2-1.3.6-1.7.2-.2.5-.4.8-.5 0 .1.1.1.1.2.5.5 1.4.5 1.9 0s.5-1.4 0-1.9-1.2-.5-1.7-.2l-1.4-2 .8-.6 1.2 1.7c.1-.1.1-.2.1-.3 0 0 0 .1.1.1.3.3.8.3 1.1 0 .3-.3.3-.8 0-1.1-.2-.2-.5-.3-.7-.2-.7-.9-.7-2.2.1-3 .6-.6 1.4-.8 2.1-.6.1-.2.1-.4.2-.6.2-.7.2-1.1.2-1.8l-1.7 1.8-.8-.7 2.1-2.3c-.1-.2-.2-.5-.3-.8.4 0 .7-.1 1-.4.5-.5.5-1.4 0-1.9s-1.4-.5-1.9 0c-.2.2-.3.4-.3.6-.4-.1-.7-.4-1-.7-1.1-1.1-1.1-2.9 0-4 .9-.9 2.3-1.1 3.4-.5.3-.1.6-.3 1-.4 1.8-.6 6.7 1.2 7.1 2 .1.1-.5 2.4-.6 3 0 1 1.1.5 1 2.5-1.6.1-.4 1.8-1.1 2.3-.6.5-2.7.1-3.6.3-.3.1-.4.6-.4 1 0 2.4 3.1 5 3.8 8.7.3 1.9.6 3 1.1 4.9.4 1.5.1 3.7-.2 5.8 2.3 1.2 7.3 2.5 7.9 2.9 1.8 1.4 1.5 3.3-1 4h-.4c-.1-.1-.2-.1-.3-.2.4-.6.3-1.4-.2-2-.6-.6-1.6-.6-2.2 0-.1.1-.2.3-.3.4l-.6-.6-.2-.2-2.4-.2v-.6l1.1-.1c-.6-.2-1.3-.3-1.8-.5-.1.4-.1.8-.1 1.1-1.5 3.4 2.8 12.4 4 15.8 1.1 3.2 2.7 10.4 3 13.8.3 4.4.1 9.4 4.1 11.2.9.4 3 .1 3.9 1 .1.5-.2.9-.3 1.3-.5.7-8.9.3-9.3-.3z"/>
	<path fill="#FFF" d="M149.5 67.4V33.5h-7.3v13.3h-16.1V33.5h-7.2v33.9h7.2V53.2h16.1v14.2zM156.1 33.5h7.2v34h-7.2zM183.5 61.1h-6.2V39.8h6.2c2.3 0 4.3.5 5.9 1.4 1.6.9 2.8 2.2 3.6 3.8.8 1.6 1.2 3.4 1.2 5.4 0 1.4-.3 2.8-.7 4.1-.5 1.3-1.2 2.4-2.1 3.4-.9 1-2 1.7-3.4 2.3-1.3.6-2.8.9-4.5.9zm0 6.3c2.7 0 5.1-.4 7.3-1.2 2.2-.8 4.1-1.9 5.7-3.4 1.6-1.5 2.8-3.3 3.7-5.4.9-2.1 1.3-4.4 1.3-7 0-2.6-.5-4.9-1.3-7-.9-2.1-2.1-3.9-3.7-5.4-1.6-1.5-3.5-2.6-5.7-3.4-2.2-.8-4.6-1.2-7.3-1.2h-13.4v34h13.4zM230.7 67.4v-6.3h-16.8v-7.7h16.5V47h-16.5v-7.2h16.8v-6.3h-24v33.9z"/>
<g fill="#FFF"><path d="M241.9 35.8c3.6 0 3.3 6.5 4.8 8.7 1.7-2 3.8-4.4 6.5-4.4 3.5 0 3.1 5.5 5.9 5.5 4.2 0 6.6-5.5 11.4-5.5 6.3 0 7.1 9.1 7.1 13.4-6 0-3.4-8-8.2-8-4.8 0-5.7 6.8-10.4 6.8-.4 0-1.4-.2-1.5-.2l-5.4-5.4c-.8 1.3-4.6 7.5-5.4 8.6-.2.2-.9 1-1 1-.1 0-.4.1-.6.1-3 0-4.9-17.2-4.9-17.9-.1-1.3 0-2.7 1.7-2.7zM291.5 35.5c4.2 0 10.8 2.5 10.8 7.6 0 6.7-12.4 4.7-15.8 4.7 0 3.9 1.1 6 6 6 2.5 0 5.1-1 6.5-3.3l1.1 1.1v.5c0 3.9-4.8 6-8.1 6-6.4 0-12.4-6-12.4-12.4 0-6.3 5.9-10.2 11.9-10.2zm0 8.8c1.2 0 4.3.6 4.3-1.7 0-2.6-4.6-2.8-6.2-2.8h-1.4c-1.4 0-2.7.4-3.2 2.2 1.5 2.3 4.1 2.3 6.5 2.3z"/>
</g></svg>